<svg id="Capa_1" enable-background="new 0 0 511.58 511.58" height="512" viewBox="0 0 511.58 511.58" width="512" xmlns="http://www.w3.org/2000/svg"><g><path d="m498.294 194.403c17.543-17.547 17.541-46.094-.004-63.639l-117.57-117.57c-17.587-17.588-46.047-17.596-63.646.003-17.227 17.239-286.61 286.808-303.786 303.996-17.544 17.544-17.544 46.09 0 63.633l117.58 117.58c8.693 8.693 20.265 13.173 31.816 13.173h205c8.284 0 15-6.716 15-15s-6.716-15-15-15h-156.368c7.939-7.943 279.986-280.179 286.978-287.176zm-160.003-159.996c5.866-5.866 15.35-5.867 21.217 0l117.57 117.57c5.85 5.85 5.85 15.367 0 21.217-.104.065-4.865 4.868-205.428 205.569-7.032-7.032-117.32-117.32-138.786-138.787zm-165.003 442.786c-5.847 5.847-15.36 5.847-21.207 0l-117.58-117.58c-5.841-5.841-5.872-15.334.004-21.21l77.153-77.206 138.787 138.787z"/><path d="m341.078 106.617 64 64c2.929 2.929 6.768 4.393 10.606 4.393 13.244 0 20.083-16.13 10.606-25.607l-64-64c-5.857-5.858-15.355-5.858-21.213 0s-5.858 15.356.001 21.214z"/></g></svg>